<svg id="Layer_1" data-name="Layer 1" xmlns="http://www.w3.org/2000/svg" viewBox="0 0 841.89 595.28"><defs><style>.cls-1{fill:#e84224;}.cls-2{fill:#f05123;}.cls-3{fill:#034247;}.cls-4{fill:#ffcc39;}.cls-5{fill:#fbab23;}.cls-6{fill:#f0efef;}.cls-7{fill:#38c0c8;}.cls-8{fill:#08a0a0;}.cls-9{fill:#5bc6cf;}.cls-10{fill:#062729;}</style></defs><title>BG6</title><polygon class="cls-1" points="649.69 576.65 649.65 576.65 649.65 576.7 649.6 576.65 564.05 577.55 648.58 491.06 649.65 576.61 649.69 576.65"/><polygon class="cls-2" points="605.75 534.88 648.58 491.06 649.65 576.61 649.69 576.65 649.65 576.65 649.65 576.7 649.6 576.65 648.5 576.67 605.75 534.88"/><polygon class="cls-3" points="766.75 611.8 766.81 611.86 766.75 611.86 766.76 611.91 766.7 611.86 657.42 613 765.4 502.53 766.75 611.8"/><polygon class="cls-2" points="656.01 503.67 656.07 503.67 656.07 503.61 656.12 503.67 765.4 502.53 657.42 613 656.07 503.73 656.01 503.67"/><polygon class="cls-3" points="431.75 566.22 431.71 566.19 459.6 538.24 459.6 538.21 459.62 538.22 459.63 538.21 459.63 538.24 487.53 566.19 487.49 566.22 431.75 566.22"/><polygon class="cls-4" points="578.09 535.53 578.61 579.23 534.93 579.69 578.09 535.53"/><polygon class="cls-5" points="534.98 579.69 534.93 579.69 534.38 536.01 534.36 535.99 534.38 535.99 534.38 535.96 534.41 535.99 578.09 535.53 578.09 535.59 534.98 579.69"/><polygon class="cls-4" points="740.8 591.09 740.74 591.09 740.16 544.93 740.14 544.9 740.16 544.9 740.16 544.88 740.19 544.9 786.35 544.42 786.35 544.48 740.8 591.09"/><polygon class="cls-5" points="740.16 545.05 763.5 567.86 740.8 591.09 740.74 591.09 740.16 545.05"/><polygon class="cls-5" points="776.34 563.62 776.39 563.62 776.88 602.46 776.89 602.48 776.88 602.48 776.88 602.5 776.86 602.48 738.01 602.89 738.01 602.84 776.34 563.62"/><polygon class="cls-6" points="769.72 580.62 769.74 580.62 769.92 595.68 769.93 595.69 769.92 595.69 769.92 595.7 769.92 595.69 754.85 595.84 754.85 595.83 769.72 580.62"/><polygon class="cls-7" points="659.34 625.18 659.32 625.25 607.59 640.03 607.56 640.07 607.57 640.04 607.54 640.05 607.57 640.01 621.17 587.96 621.24 587.94 659.34 625.18"/><polygon class="cls-2" points="522.75 543.08 522.74 543.12 493.1 551.59 493.08 551.61 493.09 551.59 493.07 551.6 493.09 551.58 500.88 521.75 500.92 521.74 522.75 543.08"/><polygon class="cls-8" points="524.24 583.75 524.23 583.77 505.48 589.13 505.47 589.14 505.47 589.13 505.46 589.13 505.48 589.12 510.4 570.25 510.43 570.25 524.24 583.75"/><polygon class="cls-3" points="409.05 567.22 409.05 567.2 420.8 560.38 420.81 560.37 420.81 560.37 420.81 560.37 420.81 560.38 420.7 573.97 420.68 573.98 409.05 567.22"/><polygon class="cls-2" points="661.02 437.52 661.05 437.53 668.3 462.89 668.32 462.91 668.31 462.91 668.31 462.92 668.29 462.9 642.77 456.24 642.76 456.2 661.02 437.52"/><polygon class="cls-5" points="665.41 414.6 665.37 414.59 657.71 387.75 657.69 387.73 657.7 387.74 657.7 387.72 657.72 387.74 684.72 394.8 684.73 394.83 665.41 414.6"/><polygon class="cls-3" points="781.93 364.72 818.08 364.48 818.66 400.63 781.93 364.72"/><polygon class="cls-3" points="822.89 358.92 850.53 358.49 850.73 386.13 822.89 358.92"/><polygon class="cls-2" points="782.98 511.67 782.25 404.02 889.88 402.29 782.98 511.67"/><polygon class="cls-1" points="836.61 456.79 782.98 511.67 782.25 404.02 782.61 404.01 836.61 456.79"/><polygon class="cls-9" points="781.91 381.73 781.91 381.81 781.99 381.81 781.91 381.89 781.89 381.76 781.91 381.73"/><polygon class="cls-7" points="755.09 512.58 606.35 514.42 753.54 363.83 755.09 512.58"/><polygon class="cls-2" points="844.64 631.97 844.61 631.98 844.61 632.01 844.58 631.98 778.08 632.67 843.78 565.44 844.61 631.94 844.64 631.97"/><polygon class="cls-4" points="839.67 510.88 839.64 510.88 839.64 510.91 839.61 510.88 783.05 511.47 838.93 454.3 839.64 510.85 839.67 510.88"/><polygon class="cls-5" points="811.03 482.85 839.64 510.81 839.64 510.85 839.67 510.88 839.64 510.88 839.64 510.91 839.61 510.88 783.05 511.47 811.03 482.85"/><polygon class="cls-7" points="838.85 518.45 860.27 539.39 855.35 544.42 828.89 518.55 838.85 518.45"/><polygon class="cls-7" points="807.73 518.77 844.9 555.11 849.83 550.08 817.69 518.67 807.73 518.77"/><polygon class="cls-7" points="791.6 518.94 791.66 523.97 834.46 565.8 839.38 560.77 796.53 518.89 791.6 518.94"/><polygon class="cls-7" points="791.79 535.15 791.91 545.11 824.01 576.49 828.93 571.45 791.79 535.15"/><polygon class="cls-7" points="792.05 556.3 792.16 566.26 813.56 587.18 818.48 582.14 792.05 556.3"/><polygon class="cls-7" points="792.3 577.45 792.41 587.41 803.12 597.87 808.04 592.83 792.3 577.45"/><path class="cls-10" d="M528.18,529.46l.59,56.78,0,0h0v0l0,0,56.78-.71v-.07l-57.33-56Zm2.66,5.69,49,47.88-48.49.6Z"/><path class="cls-10" d="M639.91,469l36.79,15v0h0v0l13.87-37.24,0,0L639.93,469Zm4.34-.19,43.27-19-11.84,31.8Z"/></svg>